
<svg version="1.1" xmlns="http://www.w3.org/2000/svg" xmlns:xlink="http://www.w3.org/1999/xlink" x="0px" y="0px"
	  viewBox="0 0 1096 780" enable-background="new 0 0 1096 780" xml:space="preserve">
<g id="background">
</g>
<g id="Layer_1">
	<g>
		<g>
			<g>
				
					<linearGradient id="SVGID_1_" gradientUnits="userSpaceOnUse" x1="90.5784" y1="289.5347" x2="90.5784" y2="262.8809" gradientTransform="matrix(-1 0 0 1 662.5967 0)">
					<stop  offset="0" style="stop-color:#A6CE39"/>
					<stop  offset="1" style="stop-color:#72BF44"/>
				</linearGradient>
				<path fill="url(#SVGID_1_)" d="M610.824,289.535c7.359,0,13.327-5.968,13.327-13.327c0-7.359-5.968-13.327-13.327-13.327
					h-77.611c-7.359,0-13.327,5.968-13.327,13.327c0,7.359,5.968,13.327,13.327,13.327H610.824z"/>
			</g>
		</g>
		<polygon fill="#A6CE39" points="610.833,296.201 601.166,289.535 610.833,289.535 		"/>
		<g opacity="0.9">
			<g>
				<linearGradient id="SVGID_2_" gradientUnits="userSpaceOnUse" x1="572.0183" y1="264.3809" x2="572.0183" y2="281.0991">
					<stop  offset="0" style="stop-color:#FFFFFF"/>
					<stop  offset="1" style="stop-color:#FFFFFF;stop-opacity:0"/>
				</linearGradient>
				<path fill="url(#SVGID_2_)" d="M533.213,264.381c-6.521,0-11.827,5.306-11.827,11.827c0,6.521,101.265,6.521,101.265,0
					c0-6.522-5.306-11.827-11.827-11.827H533.213z"/>
			</g>
		</g>
	</g>
	<g>
		<g>
			<g>
				
					<linearGradient id="SVGID_3_" gradientUnits="userSpaceOnUse" x1="1860.5828" y1="377.4248" x2="1860.5828" y2="350.771" gradientTransform="matrix(1 0 0 1 -903.1826 0)">
					<stop  offset="0" style="stop-color:#8ED8F8"/>
					<stop  offset="1" style="stop-color:#00C0F3"/>
				</linearGradient>
				<path fill="url(#SVGID_3_)" d="M918.595,377.425c-7.359,0-13.327-5.968-13.327-13.327c0-7.359,5.968-13.327,13.327-13.327
					h77.611c7.359,0,13.327,5.968,13.327,13.327c0,7.359-5.968,13.327-13.327,13.327H918.595z"/>
			</g>
		</g>
		<polygon fill="#8ED8F8" points="918.586,384.091 928.252,377.425 918.586,377.425 		"/>
		<g opacity="0.9">
			<g>
				
					<linearGradient id="SVGID_4_" gradientUnits="userSpaceOnUse" x1="-1197.9861" y1="352.271" x2="-1197.9861" y2="368.9892" gradientTransform="matrix(-1 0 0 1 -240.5859 0)">
					<stop  offset="0" style="stop-color:#FFFFFF"/>
					<stop  offset="1" style="stop-color:#FFFFFF;stop-opacity:0"/>
				</linearGradient>
				<path fill="url(#SVGID_4_)" d="M918.595,352.271c-6.521,0-11.827,5.306-11.827,11.827c0,6.521,101.265,6.521,101.265,0
					c0-6.521-5.306-11.827-11.827-11.827H918.595z"/>
			</g>
		</g>
	</g>
	<g>
		<g>
			<g>
				
					<linearGradient id="SVGID_5_" gradientUnits="userSpaceOnUse" x1="171.927" y1="157.2944" x2="171.927" y2="130.6406" gradientTransform="matrix(-1 0 0 1 662.5967 0)">
					<stop  offset="0" style="stop-color:#FFDD00"/>
					<stop  offset="1" style="stop-color:#F7941E"/>
				</linearGradient>
				<path fill="url(#SVGID_5_)" d="M529.475,157.294c7.359,0,13.327-5.968,13.327-13.327c0-7.359-5.968-13.327-13.327-13.327
					h-77.611c-7.359,0-13.327,5.968-13.327,13.327c0,7.359,5.968,13.327,13.327,13.327H529.475z"/>
			</g>
		</g>
		<polygon fill="#FFDD00" points="529.484,163.961 519.817,157.294 529.484,157.294 		"/>
		<g opacity="0.9">
			<g>
				<linearGradient id="SVGID_6_" gradientUnits="userSpaceOnUse" x1="490.6697" y1="132.1406" x2="490.6697" y2="148.8589">
					<stop  offset="0" style="stop-color:#FFFFFF"/>
					<stop  offset="1" style="stop-color:#FFFFFF;stop-opacity:0"/>
				</linearGradient>
				<path fill="url(#SVGID_6_)" d="M451.864,132.141c-6.521,0-11.827,5.306-11.827,11.827s101.265,6.521,101.265,0
					s-5.306-11.827-11.827-11.827H451.864z"/>
			</g>
		</g>
	</g>
	<g>
		<g>
			<g>
				
					<linearGradient id="SVGID_7_" gradientUnits="userSpaceOnUse" x1="-312.9553" y1="604.8213" x2="-312.9553" y2="578.1675" gradientTransform="matrix(-1 0 0 1 662.5967 0)">
					<stop  offset="0" style="stop-color:#D1D3D4"/>
					<stop  offset="1" style="stop-color:#808285"/>
				</linearGradient>
				<path fill="url(#SVGID_7_)" d="M1014.357,604.821c7.359,0,13.327-5.968,13.327-13.327c0-7.359-5.968-13.327-13.327-13.327
					h-77.611c-7.359,0-13.327,5.968-13.327,13.327c0,7.359,5.968,13.327,13.327,13.327H1014.357z"/>
			</g>
		</g>
		<polygon fill="#D1D3D4" points="1014.366,611.488 1004.7,604.821 1014.366,604.821 		"/>
		<g opacity="0.9">
			<g>
				<linearGradient id="SVGID_8_" gradientUnits="userSpaceOnUse" x1="975.552" y1="579.6675" x2="975.552" y2="596.3857">
					<stop  offset="0" style="stop-color:#FFFFFF"/>
					<stop  offset="1" style="stop-color:#FFFFFF;stop-opacity:0"/>
				</linearGradient>
				<path fill="url(#SVGID_8_)" d="M936.747,579.667c-6.521,0-11.827,5.306-11.827,11.827c0,6.521,101.265,6.521,101.265,0
					c0-6.522-5.306-11.827-11.827-11.827H936.747z"/>
			</g>
		</g>
	</g>
	<g>
		<g>
			<g>
				
					<linearGradient id="SVGID_9_" gradientUnits="userSpaceOnUse" x1="1385.8831" y1="624.8232" x2="1385.8831" y2="651.4771" gradientTransform="matrix(1 0 0 1 -903.1826 0)">
					<stop  offset="0" style="stop-color:#92278F"/>
					<stop  offset="1" style="stop-color:#BD8CBF"/>
				</linearGradient>
				<path fill="url(#SVGID_9_)" d="M443.895,651.477c-7.359,0-13.327-5.968-13.327-13.327c0-7.359,5.968-13.327,13.327-13.327
					h77.611c7.359,0,13.327,5.968,13.327,13.327c0,7.359-5.968,13.327-13.327,13.327H443.895z"/>
			</g>
		</g>
		<polygon fill="#BD8CBF" points="443.886,658.144 453.553,651.477 443.886,651.477 		"/>
		<g opacity="0.9">
			<g>
				
					<linearGradient id="SVGID_10_" gradientUnits="userSpaceOnUse" x1="-723.2864" y1="626.3232" x2="-723.2864" y2="643.0415" gradientTransform="matrix(-1 0 0 1 -240.5859 0)">
					<stop  offset="0" style="stop-color:#FFFFFF"/>
					<stop  offset="1" style="stop-color:#FFFFFF;stop-opacity:0"/>
				</linearGradient>
				<path fill="url(#SVGID_10_)" d="M443.895,626.323c-6.521,0-11.827,5.306-11.827,11.827s101.265,6.521,101.265,0
					s-5.306-11.827-11.827-11.827H443.895z"/>
			</g>
		</g>
	</g>
	<g>
		<g>
			<g>
				
					<linearGradient id="SVGID_11_" gradientUnits="userSpaceOnUse" x1="517.6194" y1="371.9312" x2="517.6194" y2="398.585" gradientTransform="matrix(-1 0 0 1 662.5967 0)">
					<stop  offset="0" style="stop-color:#EC008C"/>
					<stop  offset="1" style="stop-color:#F49AC1"/>
				</linearGradient>
				<path fill="url(#SVGID_11_)" d="M183.783,398.585c7.359,0,13.327-5.968,13.327-13.327c0-7.359-5.968-13.327-13.327-13.327
					h-77.611c-7.359,0-13.327,5.968-13.327,13.327c0,7.359,5.968,13.327,13.327,13.327H183.783z"/>
			</g>
		</g>
		<polygon fill="#F49AC1" points="183.792,405.251 174.125,398.585 183.792,398.585 		"/>
		<g opacity="0.9">
			<g>
				<linearGradient id="SVGID_12_" gradientUnits="userSpaceOnUse" x1="144.9773" y1="373.4312" x2="144.9773" y2="390.1494">
					<stop  offset="0" style="stop-color:#FFFFFF"/>
					<stop  offset="1" style="stop-color:#FFFFFF;stop-opacity:0"/>
				</linearGradient>
				<path fill="url(#SVGID_12_)" d="M106.172,373.431c-6.521,0-11.827,5.306-11.827,11.827c0,6.521,101.265,6.521,101.265,0
					c0-6.522-5.306-11.827-11.827-11.827H106.172z"/>
			</g>
		</g>
	</g>
	<g>
		<g>
			<g>
				
					<linearGradient id="SVGID_13_" gradientUnits="userSpaceOnUse" x1="486.3069" y1="739.2778" x2="486.3069" y2="712.624" gradientTransform="matrix(1 0 0 1 -444.8467 0)">
					<stop  offset="0" style="stop-color:#A6CE39"/>
					<stop  offset="1" style="stop-color:#72BF44"/>
				</linearGradient>
				<path fill="url(#SVGID_13_)" d="M22.794,739.278c-7.359,0-13.327-5.968-13.327-13.327c0-7.359,5.968-13.327,13.327-13.327
					h37.332c7.359,0,13.327,5.968,13.327,13.327c0,7.359-5.968,13.327-13.327,13.327H22.794z"/>
			</g>
		</g>
		<polygon fill="#A6CE39" points="22.786,745.944 32.452,739.278 22.786,739.278 		"/>
		<g opacity="0.9">
			<g>
				
					<linearGradient id="SVGID_14_" gradientUnits="userSpaceOnUse" x1="176.2898" y1="714.124" x2="176.2898" y2="730.8423" gradientTransform="matrix(-1 0 0 1 217.75 0)">
					<stop  offset="0" style="stop-color:#FFFFFF"/>
					<stop  offset="1" style="stop-color:#FFFFFF;stop-opacity:0"/>
				</linearGradient>
				<path fill="url(#SVGID_14_)" d="M22.794,714.124c-6.521,0-11.827,5.306-11.827,11.827c0,6.522,60.986,6.522,60.986,0
					c0-6.521-5.306-11.827-11.827-11.827H22.794z"/>
			</g>
		</g>
	</g>
	<g>
		<g>
			<g>
				
					<linearGradient id="SVGID_15_" gradientUnits="userSpaceOnUse" x1="-1351.8469" y1="447.354" x2="-1351.8469" y2="420.7002" gradientTransform="matrix(1 0 0 1 1860.5928 0)">
					<stop  offset="0" style="stop-color:#8ED8F8"/>
					<stop  offset="1" style="stop-color:#00C0F3"/>
				</linearGradient>
				<path fill="url(#SVGID_15_)" d="M490.08,447.354c-7.359,0-13.327-5.968-13.327-13.327c0-7.359,5.968-13.327,13.327-13.327
					h37.332c7.359,0,13.327,5.968,13.327,13.327c0,7.359-5.968,13.327-13.327,13.327H490.08z"/>
			</g>
		</g>
		<polygon fill="#8ED8F8" points="490.071,454.021 499.738,447.354 490.071,447.354 		"/>
		<g opacity="0.9">
			<g>
				
					<linearGradient id="SVGID_16_" gradientUnits="userSpaceOnUse" x1="2014.4437" y1="422.2002" x2="2014.4437" y2="438.9184" gradientTransform="matrix(-1 0 0 1 2523.1895 0)">
					<stop  offset="0" style="stop-color:#FFFFFF"/>
					<stop  offset="1" style="stop-color:#FFFFFF;stop-opacity:0"/>
				</linearGradient>
				<path fill="url(#SVGID_16_)" d="M490.08,422.2c-6.522,0-11.827,5.306-11.827,11.827c0,6.521,60.986,6.521,60.986,0
					c0-6.521-5.306-11.827-11.827-11.827H490.08z"/>
			</g>
		</g>
	</g>
	<g>
		<g>
			<g>
				
					<linearGradient id="SVGID_17_" gradientUnits="userSpaceOnUse" x1="-1581.2512" y1="749.2715" x2="-1581.2512" y2="722.6177" gradientTransform="matrix(1 0 0 1 1860.5928 0)">
					<stop  offset="0" style="stop-color:#FFDD00"/>
					<stop  offset="1" style="stop-color:#F7941E"/>
				</linearGradient>
				<path fill="url(#SVGID_17_)" d="M260.676,749.271c-7.359,0-13.327-5.968-13.327-13.327c0-7.359,5.968-13.327,13.327-13.327
					h37.331c7.359,0,13.327,5.968,13.327,13.327c0,7.359-5.968,13.327-13.327,13.327H260.676z"/>
			</g>
		</g>
		<polygon fill="#FFDD00" points="260.667,755.938 270.333,749.271 260.667,749.271 		"/>
		<g opacity="0.9">
			<g>
				
					<linearGradient id="SVGID_18_" gradientUnits="userSpaceOnUse" x1="2243.8479" y1="724.1177" x2="2243.8479" y2="740.8359" gradientTransform="matrix(-1 0 0 1 2523.1895 0)">
					<stop  offset="0" style="stop-color:#FFFFFF"/>
					<stop  offset="1" style="stop-color:#FFFFFF;stop-opacity:0"/>
				</linearGradient>
				<path fill="url(#SVGID_18_)" d="M260.676,724.118c-6.522,0-11.827,5.306-11.827,11.827c0,6.521,60.986,6.521,60.986,0
					c0-6.522-5.306-11.827-11.827-11.827H260.676z"/>
			</g>
		</g>
	</g>
	<g>
		<g>
			<g>
				
					<linearGradient id="SVGID_19_" gradientUnits="userSpaceOnUse" x1="-179.2009" y1="116.5718" x2="-179.2009" y2="89.918" gradientTransform="matrix(-1 0 0 1 662.5967 0)">
					<stop  offset="0" style="stop-color:#D1D3D4"/>
					<stop  offset="1" style="stop-color:#808285"/>
				</linearGradient>
				<path fill="url(#SVGID_19_)" d="M860.463,116.572c7.359,0,13.327-5.968,13.327-13.327c0-7.359-5.968-13.327-13.327-13.327
					h-37.332c-7.359,0-13.327,5.968-13.327,13.327c0,7.359,5.968,13.327,13.327,13.327H860.463z"/>
			</g>
		</g>
		<polygon fill="#D1D3D4" points="860.472,123.238 850.806,116.572 860.472,116.572 		"/>
		<g opacity="0.9">
			<g>
				<linearGradient id="SVGID_20_" gradientUnits="userSpaceOnUse" x1="841.7976" y1="91.418" x2="841.7976" y2="108.1362">
					<stop  offset="0" style="stop-color:#FFFFFF"/>
					<stop  offset="1" style="stop-color:#FFFFFF;stop-opacity:0"/>
				</linearGradient>
				<path fill="url(#SVGID_20_)" d="M823.132,91.418c-6.521,0-11.827,5.306-11.827,11.827s60.986,6.521,60.986,0
					s-5.306-11.827-11.827-11.827H823.132z"/>
			</g>
		</g>
	</g>
	<g>
		<g>
			<g>
				
					<linearGradient id="SVGID_21_" gradientUnits="userSpaceOnUse" x1="607.3318" y1="391.249" x2="607.3318" y2="417.9028" gradientTransform="matrix(-1 0 0 1 662.5967 0)">
					<stop  offset="0" style="stop-color:#92278F"/>
					<stop  offset="1" style="stop-color:#BD8CBF"/>
				</linearGradient>
				<path fill="url(#SVGID_21_)" d="M73.931,417.903c7.359,0,13.327-5.968,13.327-13.327c0-7.359-5.968-13.327-13.327-13.327H36.599
					c-7.359,0-13.327,5.968-13.327,13.327c0,7.359,5.968,13.327,13.327,13.327H73.931z"/>
			</g>
		</g>
		<polygon fill="#BD8CBF" points="73.939,424.569 64.273,417.903 73.939,417.903 		"/>
		<g opacity="0.9">
			<g>
				<linearGradient id="SVGID_22_" gradientUnits="userSpaceOnUse" x1="55.2649" y1="392.749" x2="55.2649" y2="409.4673">
					<stop  offset="0" style="stop-color:#FFFFFF"/>
					<stop  offset="1" style="stop-color:#FFFFFF;stop-opacity:0"/>
				</linearGradient>
				<path fill="url(#SVGID_22_)" d="M36.599,392.749c-6.521,0-11.827,5.306-11.827,11.827c0,6.521,60.986,6.521,60.986,0
					c0-6.522-5.306-11.827-11.827-11.827H36.599z"/>
			</g>
		</g>
	</g>
	<g>
		<g>
			<g>
				
					<linearGradient id="SVGID_23_" gradientUnits="userSpaceOnUse" x1="100.2454" y1="98.3535" x2="100.2454" y2="125.0073" gradientTransform="matrix(-1 0 0 1 662.5967 0)">
					<stop  offset="0" style="stop-color:#EC008C"/>
					<stop  offset="1" style="stop-color:#F49AC1"/>
				</linearGradient>
				<path fill="url(#SVGID_23_)" d="M581.017,125.007c7.359,0,13.327-5.968,13.327-13.327c0-7.359-5.968-13.327-13.327-13.327
					h-37.332c-7.359,0-13.327,5.968-13.327,13.327c0,7.359,5.968,13.327,13.327,13.327H581.017z"/>
			</g>
		</g>
		<polygon fill="#F49AC1" points="581.026,131.674 571.359,125.007 581.026,125.007 		"/>
		<g opacity="0.9">
			<g>
				<linearGradient id="SVGID_24_" gradientUnits="userSpaceOnUse" x1="562.3513" y1="99.8535" x2="562.3513" y2="116.5718">
					<stop  offset="0" style="stop-color:#FFFFFF"/>
					<stop  offset="1" style="stop-color:#FFFFFF;stop-opacity:0"/>
				</linearGradient>
				<path fill="url(#SVGID_24_)" d="M543.686,99.854c-6.521,0-11.827,5.306-11.827,11.827c0,6.521,60.986,6.521,60.986,0
					c0-6.521-5.306-11.827-11.827-11.827H543.686z"/>
			</g>
		</g>
	</g>
	<g>
		<polygon fill="#F49AC1" points="1061.317,177.064 1051.65,170.398 1061.317,170.398 		"/>
		
			<linearGradient id="SVGID_25_" gradientUnits="userSpaceOnUse" x1="-319.906" y1="63.7827" x2="-319.906" y2="170.3979" gradientTransform="matrix(-1 0 0 1 662.5967 0)">
			<stop  offset="0" style="stop-color:#EC008C"/>
			<stop  offset="1" style="stop-color:#F49AC1"/>
		</linearGradient>
		<path fill="url(#SVGID_25_)" d="M1074.635,77.11c0-7.359-5.968-13.327-13.327-13.327H903.697c-7.359,0-13.327,5.968-13.327,13.327
			v79.961c0,7.359,5.968,13.327,13.327,13.327h157.611c7.359,0,13.327-5.968,13.327-13.327V77.11z"/>
		<linearGradient id="SVGID_26_" gradientUnits="userSpaceOnUse" x1="982.5027" y1="65.2827" x2="982.5027" y2="82.001">
			<stop  offset="0" style="stop-color:#FFFFFF"/>
			<stop  offset="1" style="stop-color:#FFFFFF;stop-opacity:0"/>
		</linearGradient>
		<path opacity="0.8" fill="url(#SVGID_26_)" d="M903.697,65.283c-6.521,0-11.827,5.306-11.827,11.827
			c0,6.521,181.265,6.521,181.265,0c0-6.521-5.306-11.827-11.827-11.827H903.697z"/>
	</g>
	<g>
		<polygon fill="#F49AC1" points="181.823,268.615 172.157,261.948 181.823,261.948 		"/>
		
			<linearGradient id="SVGID_27_" gradientUnits="userSpaceOnUse" x1="516.8533" y1="208.6406" x2="516.8533" y2="261.9482" gradientTransform="matrix(-1 0 0 1 662.5967 0)">
			<stop  offset="0" style="stop-color:#EC008C"/>
			<stop  offset="1" style="stop-color:#F49AC1"/>
		</linearGradient>
		<path fill="url(#SVGID_27_)" d="M96.345,248.622c0,7.359,5.968,13.327,13.327,13.327h72.142c7.359,0,13.327-5.968,13.327-13.327
			v-26.654c0-7.359-5.968-13.327-13.327-13.327h-72.142c-7.359,0-13.327,5.968-13.327,13.327V248.622z"/>
		<linearGradient id="SVGID_28_" gradientUnits="userSpaceOnUse" x1="145.7434" y1="210.1406" x2="145.7434" y2="226.8589">
			<stop  offset="0" style="stop-color:#FFFFFF"/>
			<stop  offset="1" style="stop-color:#FFFFFF;stop-opacity:0"/>
		</linearGradient>
		<path opacity="0.8" fill="url(#SVGID_28_)" d="M109.672,210.141c-6.521,0-11.827,5.306-11.827,11.827s95.796,6.521,95.796,0
			s-5.306-11.827-11.827-11.827H109.672z"/>
	</g>
	<g>
		<polygon fill="#BD8CBF" points="406.487,742.144 396.82,735.477 406.487,735.477 		"/>
		
			<linearGradient id="SVGID_29_" gradientUnits="userSpaceOnUse" x1="292.1897" y1="682.1699" x2="292.1897" y2="735.4775" gradientTransform="matrix(-1 0 0 1 662.5967 0)">
			<stop  offset="0" style="stop-color:#92278F"/>
			<stop  offset="1" style="stop-color:#BD8CBF"/>
		</linearGradient>
		<path fill="url(#SVGID_29_)" d="M321.009,722.151c0,7.359,5.968,13.327,13.327,13.327h72.142c7.359,0,13.327-5.968,13.327-13.327
			v-26.654c0-7.359-5.968-13.327-13.327-13.327h-72.142c-7.359,0-13.327,5.968-13.327,13.327V722.151z"/>
		<linearGradient id="SVGID_30_" gradientUnits="userSpaceOnUse" x1="370.407" y1="683.6699" x2="370.407" y2="700.3882">
			<stop  offset="0" style="stop-color:#FFFFFF"/>
			<stop  offset="1" style="stop-color:#FFFFFF;stop-opacity:0"/>
		</linearGradient>
		<path opacity="0.8" fill="url(#SVGID_30_)" d="M334.336,683.67c-6.521,0-11.827,5.306-11.827,11.827
			c0,6.522,95.796,6.522,95.796,0c0-6.521-5.306-11.827-11.827-11.827H334.336z"/>
	</g>
	<g>
		<polygon fill="#D1D3D4" points="1062.265,454.557 1052.598,447.89 1062.265,447.89 		"/>
		
			<linearGradient id="SVGID_31_" gradientUnits="userSpaceOnUse" x1="-363.5881" y1="447.8901" x2="-363.5881" y2="394.5825" gradientTransform="matrix(-1 0 0 1 662.5967 0)">
			<stop  offset="0" style="stop-color:#D1D3D4"/>
			<stop  offset="1" style="stop-color:#808285"/>
		</linearGradient>
		<path fill="url(#SVGID_31_)" d="M976.787,434.564c0,7.359,5.968,13.327,13.327,13.327h72.142c7.359,0,13.327-5.968,13.327-13.327
			V407.91c0-7.359-5.968-13.327-13.327-13.327h-72.142c-7.359,0-13.327,5.968-13.327,13.327V434.564z"/>
		<linearGradient id="SVGID_32_" gradientUnits="userSpaceOnUse" x1="1026.1848" y1="396.0825" x2="1026.1848" y2="412.8008">
			<stop  offset="0" style="stop-color:#FFFFFF"/>
			<stop  offset="1" style="stop-color:#FFFFFF;stop-opacity:0"/>
		</linearGradient>
		<path opacity="0.8" fill="url(#SVGID_32_)" d="M990.114,396.083c-6.521,0-11.827,5.306-11.827,11.827
			c0,6.522,95.796,6.522,95.796,0c0-6.521-5.306-11.827-11.827-11.827H990.114z"/>
	</g>
	<g>
		<polygon fill="#FFDD00" points="49.678,695.812 59.344,689.146 49.678,689.146 		"/>
		
			<linearGradient id="SVGID_33_" gradientUnits="userSpaceOnUse" x1="636.0672" y1="689.1455" x2="636.0672" y2="635.8379" gradientTransform="matrix(1 0 0 1 -550.3096 0)">
			<stop  offset="0" style="stop-color:#FFDD00"/>
			<stop  offset="1" style="stop-color:#F7941E"/>
		</linearGradient>
		<path fill="url(#SVGID_33_)" d="M135.156,675.819c0,7.359-5.968,13.327-13.327,13.327H49.687c-7.359,0-13.327-5.968-13.327-13.327
			v-26.654c0-7.359,5.968-13.327,13.327-13.327h72.142c7.359,0,13.327,5.968,13.327,13.327V675.819z"/>
		
			<linearGradient id="SVGID_34_" gradientUnits="userSpaceOnUse" x1="26.5295" y1="637.3379" x2="26.5295" y2="654.0562" gradientTransform="matrix(-1 0 0 1 112.2871 0)">
			<stop  offset="0" style="stop-color:#FFFFFF"/>
			<stop  offset="1" style="stop-color:#FFFFFF;stop-opacity:0"/>
		</linearGradient>
		<path opacity="0.8" fill="url(#SVGID_34_)" d="M49.687,637.338c-6.521,0-11.827,5.306-11.827,11.827
			c0,6.522,95.796,6.522,95.796,0c0-6.521-5.306-11.827-11.827-11.827H49.687z"/>
	</g>
	<g>
		<polygon fill="#8ED8F8" points="372.645,76.706 382.311,70.04 372.645,70.04 		"/>
		
			<linearGradient id="SVGID_35_" gradientUnits="userSpaceOnUse" x1="269.1144" y1="70.0396" x2="269.1144" y2="16.7319" gradientTransform="matrix(1 0 0 1 139.6104 0)">
			<stop  offset="0" style="stop-color:#8ED8F8"/>
			<stop  offset="1" style="stop-color:#00C0F3"/>
		</linearGradient>
		<path fill="url(#SVGID_35_)" d="M458.123,56.713c0,7.359-5.968,13.327-13.327,13.327h-72.142c-7.359,0-13.327-5.968-13.327-13.327
			V30.059c0-7.359,5.968-13.327,13.327-13.327h72.142c7.359,0,13.327,5.968,13.327,13.327V56.713z"/>
		
			<linearGradient id="SVGID_36_" gradientUnits="userSpaceOnUse" x1="393.4821" y1="18.2319" x2="393.4821" y2="34.9502" gradientTransform="matrix(-1 0 0 1 802.207 0)">
			<stop  offset="0" style="stop-color:#FFFFFF"/>
			<stop  offset="1" style="stop-color:#FFFFFF;stop-opacity:0"/>
		</linearGradient>
		<path opacity="0.8" fill="url(#SVGID_36_)" d="M372.654,18.232c-6.522,0-11.827,5.306-11.827,11.827s95.796,6.521,95.796,0
			s-5.306-11.827-11.827-11.827H372.654z"/>
	</g>
	<g>
		<polygon fill="#A6CE39" points="109.664,479.991 119.33,473.324 109.664,473.324 		"/>
		
			<linearGradient id="SVGID_37_" gradientUnits="userSpaceOnUse" x1="528.0959" y1="473.3242" x2="528.0959" y2="420.0166" gradientTransform="matrix(1 0 0 1 -382.3525 0)">
			<stop  offset="0" style="stop-color:#A6CE39"/>
			<stop  offset="0.2774" style="stop-color:#9DCB3B"/>
			<stop  offset="0.7283" style="stop-color:#85C441"/>
			<stop  offset="1" style="stop-color:#72BF44"/>
		</linearGradient>
		<path fill="url(#SVGID_37_)" d="M195.142,459.998c0,7.359-5.968,13.327-13.327,13.327h-72.142
			c-7.359,0-13.327-5.968-13.327-13.327v-26.654c0-7.359,5.968-13.327,13.327-13.327h72.142c7.359,0,13.327,5.968,13.327,13.327
			V459.998z"/>
		
			<linearGradient id="SVGID_38_" gradientUnits="userSpaceOnUse" x1="134.5007" y1="421.5166" x2="134.5007" y2="438.2349" gradientTransform="matrix(-1 0 0 1 280.2441 0)">
			<stop  offset="0" style="stop-color:#FFFFFF"/>
			<stop  offset="1" style="stop-color:#FFFFFF;stop-opacity:0"/>
		</linearGradient>
		<path opacity="0.8" fill="url(#SVGID_38_)" d="M109.672,421.517c-6.521,0-11.827,5.306-11.827,11.827
			c0,6.521,95.796,6.521,95.796,0c0-6.522-5.306-11.827-11.827-11.827H109.672z"/>
	</g>
	<g>
		<polygon fill="#F49AC1" points="1048.523,342.056 1038.857,335.39 1048.523,335.39 		"/>
		
			<linearGradient id="SVGID_39_" gradientUnits="userSpaceOnUse" x1="-331.8034" y1="282.082" x2="-331.8034" y2="335.3896" gradientTransform="matrix(-1 0 0 1 662.5967 0)">
			<stop  offset="0" style="stop-color:#EC008C"/>
			<stop  offset="1" style="stop-color:#F49AC1"/>
		</linearGradient>
		<path fill="url(#SVGID_39_)" d="M926.958,322.063c0,7.359,5.968,13.327,13.327,13.327h108.229c7.359,0,13.327-5.968,13.327-13.327
			v-26.654c0-7.359-5.968-13.327-13.327-13.327H940.286c-7.359,0-13.327,5.968-13.327,13.327V322.063z"/>
		<linearGradient id="SVGID_40_" gradientUnits="userSpaceOnUse" x1="994.4001" y1="283.582" x2="994.4001" y2="300.3003">
			<stop  offset="0" style="stop-color:#FFFFFF"/>
			<stop  offset="1" style="stop-color:#FFFFFF;stop-opacity:0"/>
		</linearGradient>
		<path opacity="0.8" fill="url(#SVGID_40_)" d="M940.286,283.582c-6.521,0-11.827,5.306-11.827,11.827
			c0,6.521,131.883,6.521,131.883,0c0-6.522-5.306-11.827-11.827-11.827H940.286z"/>
	</g>
	<g>
		<polygon fill="#BD8CBF" points="1036.626,763.268 1026.959,756.602 1036.626,756.602 		"/>
		
			<linearGradient id="SVGID_41_" gradientUnits="userSpaceOnUse" x1="-319.9059" y1="703.2939" x2="-319.9059" y2="756.6016" gradientTransform="matrix(-1 0 0 1 662.5967 0)">
			<stop  offset="0" style="stop-color:#92278F"/>
			<stop  offset="1" style="stop-color:#BD8CBF"/>
		</linearGradient>
		<path fill="url(#SVGID_41_)" d="M915.061,743.275c0,7.359,5.968,13.327,13.327,13.327h108.229c7.359,0,13.327-5.968,13.327-13.327
			v-26.654c0-7.359-5.968-13.327-13.327-13.327H928.388c-7.359,0-13.327,5.968-13.327,13.327V743.275z"/>
		<linearGradient id="SVGID_42_" gradientUnits="userSpaceOnUse" x1="982.5026" y1="704.7939" x2="982.5026" y2="721.5122">
			<stop  offset="0" style="stop-color:#FFFFFF"/>
			<stop  offset="1" style="stop-color:#FFFFFF;stop-opacity:0"/>
		</linearGradient>
		<path opacity="0.8" fill="url(#SVGID_42_)" d="M928.388,704.794c-6.521,0-11.827,5.306-11.827,11.827s131.883,6.521,131.883,0
			s-5.306-11.827-11.827-11.827H928.388z"/>
	</g>
	<g>
		<polygon fill="#D1D3D4" points="291.16,683.239 300.827,676.573 291.16,676.573 		"/>
		
			<linearGradient id="SVGID_43_" gradientUnits="userSpaceOnUse" x1="1209.3333" y1="676.5728" x2="1209.3333" y2="623.2651" gradientTransform="matrix(1 0 0 1 -864.0498 0)">
			<stop  offset="0" style="stop-color:#D1D3D4"/>
			<stop  offset="1" style="stop-color:#808285"/>
		</linearGradient>
		<path fill="url(#SVGID_43_)" d="M412.725,663.246c0,7.359-5.968,13.327-13.327,13.327H291.169
			c-7.359,0-13.327-5.968-13.327-13.327v-26.654c0-7.359,5.968-13.327,13.327-13.327h108.229c7.359,0,13.327,5.968,13.327,13.327
			V663.246z"/>
		
			<linearGradient id="SVGID_44_" gradientUnits="userSpaceOnUse" x1="-546.7366" y1="624.7651" x2="-546.7366" y2="641.4834" gradientTransform="matrix(-1 0 0 1 -201.4531 0)">
			<stop  offset="0" style="stop-color:#FFFFFF"/>
			<stop  offset="1" style="stop-color:#FFFFFF;stop-opacity:0"/>
		</linearGradient>
		<path opacity="0.8" fill="url(#SVGID_44_)" d="M291.169,624.765c-6.521,0-11.827,5.306-11.827,11.827s131.883,6.521,131.883,0
			s-5.306-11.827-11.827-11.827H291.169z"/>
	</g>
	<g>
		<polygon fill="#FFDD00" points="37.97,327.771 47.636,321.104 37.97,321.104 		"/>
		
			<linearGradient id="SVGID_45_" gradientUnits="userSpaceOnUse" x1="956.1428" y1="321.104" x2="956.1428" y2="267.7964" gradientTransform="matrix(1 0 0 1 -864.0498 0)">
			<stop  offset="0" style="stop-color:#FFDD00"/>
			<stop  offset="1" style="stop-color:#F7941E"/>
		</linearGradient>
		<path fill="url(#SVGID_45_)" d="M159.535,307.777c0,7.359-5.968,13.327-13.327,13.327H37.979c-7.359,0-13.327-5.968-13.327-13.327
			v-26.654c0-7.359,5.968-13.327,13.327-13.327h108.229c7.359,0,13.327,5.968,13.327,13.327V307.777z"/>
		
			<linearGradient id="SVGID_46_" gradientUnits="userSpaceOnUse" x1="-293.5461" y1="269.2964" x2="-293.5461" y2="286.0146" gradientTransform="matrix(-1 0 0 1 -201.4531 0)">
			<stop  offset="0" style="stop-color:#FFFFFF"/>
			<stop  offset="1" style="stop-color:#FFFFFF;stop-opacity:0"/>
		</linearGradient>
		<path opacity="0.8" fill="url(#SVGID_46_)" d="M37.979,269.296c-6.521,0-11.827,5.306-11.827,11.827
			c0,6.521,131.883,6.521,131.883,0c0-6.521-5.306-11.827-11.827-11.827H37.979z"/>
	</g>
	<g>
		<polygon fill="#8ED8F8" points="862.532,683.239 852.866,676.573 862.532,676.573 		"/>
		
			<linearGradient id="SVGID_47_" gradientUnits="userSpaceOnUse" x1="-145.8122" y1="676.5728" x2="-145.8122" y2="623.2651" gradientTransform="matrix(-1 0 0 1 662.5967 0)">
			<stop  offset="0" style="stop-color:#8ED8F8"/>
			<stop  offset="1" style="stop-color:#00C0F3"/>
		</linearGradient>
		<path fill="url(#SVGID_47_)" d="M740.967,663.246c0,7.359,5.968,13.327,13.327,13.327h108.229c7.359,0,13.327-5.968,13.327-13.327
			v-26.654c0-7.359-5.968-13.327-13.327-13.327H754.294c-7.359,0-13.327,5.968-13.327,13.327V663.246z"/>
		<linearGradient id="SVGID_48_" gradientUnits="userSpaceOnUse" x1="808.4089" y1="624.7651" x2="808.4089" y2="641.4834">
			<stop  offset="0" style="stop-color:#FFFFFF"/>
			<stop  offset="1" style="stop-color:#FFFFFF;stop-opacity:0"/>
		</linearGradient>
		<path opacity="0.8" fill="url(#SVGID_48_)" d="M754.294,624.765c-6.521,0-11.827,5.306-11.827,11.827s131.883,6.521,131.883,0
			s-5.306-11.827-11.827-11.827H754.294z"/>
	</g>
	<g>
		<polygon fill="#A6CE39" points="481.034,81.699 490.7,75.033 481.034,75.033 		"/>
		
			<linearGradient id="SVGID_49_" gradientUnits="userSpaceOnUse" x1="1399.2068" y1="75.0327" x2="1399.2068" y2="21.7251" gradientTransform="matrix(1 0 0 1 -864.0498 0)">
			<stop  offset="0" style="stop-color:#A6CE39"/>
			<stop  offset="0.2774" style="stop-color:#9DCB3B"/>
			<stop  offset="0.7283" style="stop-color:#85C441"/>
			<stop  offset="1" style="stop-color:#72BF44"/>
		</linearGradient>
		<path fill="url(#SVGID_49_)" d="M602.599,61.706c0,7.359-5.968,13.327-13.327,13.327H481.043c-7.359,0-13.327-5.968-13.327-13.327
			V35.052c0-7.359,5.968-13.327,13.327-13.327h108.229c7.359,0,13.327,5.968,13.327,13.327V61.706z"/>
		
			<linearGradient id="SVGID_50_" gradientUnits="userSpaceOnUse" x1="-736.61" y1="23.2251" x2="-736.61" y2="39.9433" gradientTransform="matrix(-1 0 0 1 -201.4531 0)">
			<stop  offset="0" style="stop-color:#FFFFFF"/>
			<stop  offset="1" style="stop-color:#FFFFFF;stop-opacity:0"/>
		</linearGradient>
		<path opacity="0.8" fill="url(#SVGID_50_)" d="M481.043,23.225c-6.522,0-11.827,5.306-11.827,11.827
			c0,6.521,131.883,6.521,131.883,0c0-6.521-5.306-11.827-11.827-11.827H481.043z"/>
	</g>
	<g>
		<polygon fill="#F49AC1" points="250.518,712.157 240.852,705.491 250.518,705.491 		"/>
		
			<linearGradient id="SVGID_51_" gradientUnits="userSpaceOnUse" x1="452.3929" y1="625.5293" x2="452.3929" y2="705.4907" gradientTransform="matrix(-1 0 0 1 662.5967 0)">
			<stop  offset="0" style="stop-color:#EC008C"/>
			<stop  offset="1" style="stop-color:#F49AC1"/>
		</linearGradient>
		<path fill="url(#SVGID_51_)" d="M263.836,638.856c0-7.359-5.968-13.327-13.327-13.327h-80.611
			c-7.359,0-13.327,5.968-13.327,13.327v53.308c0,7.359,5.968,13.327,13.327,13.327h80.611c7.359,0,13.327-5.968,13.327-13.327
			V638.856z"/>
		<linearGradient id="SVGID_52_" gradientUnits="userSpaceOnUse" x1="210.2039" y1="627.0293" x2="210.2039" y2="643.7475">
			<stop  offset="0" style="stop-color:#FFFFFF"/>
			<stop  offset="1" style="stop-color:#FFFFFF;stop-opacity:0"/>
		</linearGradient>
		<path opacity="0.8" fill="url(#SVGID_52_)" d="M169.898,627.029c-6.521,0-11.827,5.306-11.827,11.827
			c0,6.522,104.265,6.522,104.265,0c0-6.521-5.306-11.827-11.827-11.827H169.898z"/>
	</g>
	<g>
		<polygon fill="#BD8CBF" points="917.086,274.23 926.752,267.564 917.086,267.564 		"/>
		
			<linearGradient id="SVGID_53_" gradientUnits="userSpaceOnUse" x1="477.202" y1="187.6021" x2="477.202" y2="267.5635" gradientTransform="matrix(1 0 0 1 480.1982 0)">
			<stop  offset="0" style="stop-color:#92278F"/>
			<stop  offset="1" style="stop-color:#BD8CBF"/>
		</linearGradient>
		<path fill="url(#SVGID_53_)" d="M903.768,200.929c0-7.359,5.968-13.327,13.327-13.327h80.611c7.359,0,13.327,5.968,13.327,13.327
			v53.308c0,7.359-5.968,13.327-13.327,13.327h-80.611c-7.359,0-13.327-5.968-13.327-13.327V200.929z"/>
		
			<linearGradient id="SVGID_54_" gradientUnits="userSpaceOnUse" x1="185.3948" y1="189.1021" x2="185.3948" y2="205.8203" gradientTransform="matrix(-1 0 0 1 1142.7949 0)">
			<stop  offset="0" style="stop-color:#FFFFFF"/>
			<stop  offset="1" style="stop-color:#FFFFFF;stop-opacity:0"/>
		</linearGradient>
		<path opacity="0.8" fill="url(#SVGID_54_)" d="M917.095,189.102c-6.521,0-11.827,5.306-11.827,11.827s104.265,6.521,104.265,0
			s-5.306-11.827-11.827-11.827H917.095z"/>
	</g>
	<g>
		<polygon fill="#D1D3D4" points="572.018,258.316 562.352,251.649 572.018,251.649 		"/>
		
			<linearGradient id="SVGID_55_" gradientUnits="userSpaceOnUse" x1="130.8929" y1="251.6494" x2="130.8929" y2="171.688" gradientTransform="matrix(-1 0 0 1 662.5967 0)">
			<stop  offset="0" style="stop-color:#D1D3D4"/>
			<stop  offset="1" style="stop-color:#808285"/>
		</linearGradient>
		<path fill="url(#SVGID_55_)" d="M585.336,185.015c0-7.359-5.968-13.327-13.327-13.327h-80.611
			c-7.359,0-13.327,5.968-13.327,13.327v53.308c0,7.359,5.968,13.327,13.327,13.327h80.611c7.359,0,13.327-5.968,13.327-13.327
			V185.015z"/>
		<linearGradient id="SVGID_56_" gradientUnits="userSpaceOnUse" x1="531.7039" y1="173.188" x2="531.7039" y2="189.9062">
			<stop  offset="0" style="stop-color:#FFFFFF"/>
			<stop  offset="1" style="stop-color:#FFFFFF;stop-opacity:0"/>
		</linearGradient>
		<path opacity="0.8" fill="url(#SVGID_56_)" d="M491.398,173.188c-6.521,0-11.827,5.306-11.827,11.827
			c0,6.521,104.265,6.521,104.265,0c0-6.521-5.306-11.827-11.827-11.827H491.398z"/>
	</g>
	<g>
		<polygon fill="#FFDD00" points="905.188,699.899 914.855,693.233 905.188,693.233 		"/>
		
			<linearGradient id="SVGID_57_" gradientUnits="userSpaceOnUse" x1="-379.4592" y1="693.2329" x2="-379.4592" y2="613.2715" gradientTransform="matrix(1 0 0 1 1324.9619 0)">
			<stop  offset="0" style="stop-color:#FFDD00"/>
			<stop  offset="1" style="stop-color:#F7941E"/>
		</linearGradient>
		<path fill="url(#SVGID_57_)" d="M891.87,626.599c0-7.359,5.968-13.327,13.327-13.327h80.611c7.359,0,13.327,5.968,13.327,13.327
			v53.308c0,7.359-5.968,13.327-13.327,13.327h-80.611c-7.359,0-13.327-5.968-13.327-13.327V626.599z"/>
		
			<linearGradient id="SVGID_58_" gradientUnits="userSpaceOnUse" x1="1042.0559" y1="614.7715" x2="1042.0559" y2="631.4897" gradientTransform="matrix(-1 0 0 1 1987.5586 0)">
			<stop  offset="0" style="stop-color:#FFFFFF"/>
			<stop  offset="1" style="stop-color:#FFFFFF;stop-opacity:0"/>
		</linearGradient>
		<path opacity="0.8" fill="url(#SVGID_58_)" d="M905.197,614.771c-6.521,0-11.827,5.306-11.827,11.827
			c0,6.522,104.265,6.522,104.265,0c0-6.521-5.306-11.827-11.827-11.827H905.197z"/>
	</g>
	<g>
		<polygon fill="#8ED8F8" points="444.038,759.935 453.704,753.268 444.038,753.268 		"/>
		
			<linearGradient id="SVGID_59_" gradientUnits="userSpaceOnUse" x1="23.4875" y1="753.2681" x2="23.4875" y2="673.3066" gradientTransform="matrix(1 0 0 1 460.8643 0)">
			<stop  offset="0" style="stop-color:#8ED8F8"/>
			<stop  offset="1" style="stop-color:#00C0F3"/>
		</linearGradient>
		<path fill="url(#SVGID_59_)" d="M430.719,686.634c0-7.359,5.968-13.327,13.327-13.327h80.611c7.359,0,13.327,5.968,13.327,13.327
			v53.308c0,7.359-5.968,13.327-13.327,13.327h-80.611c-7.359,0-13.327-5.968-13.327-13.327V686.634z"/>
		
			<linearGradient id="SVGID_60_" gradientUnits="userSpaceOnUse" x1="639.1091" y1="674.8066" x2="639.1091" y2="691.5249" gradientTransform="matrix(-1 0 0 1 1123.4609 0)">
			<stop  offset="0" style="stop-color:#FFFFFF"/>
			<stop  offset="1" style="stop-color:#FFFFFF;stop-opacity:0"/>
		</linearGradient>
		<path opacity="0.8" fill="url(#SVGID_60_)" d="M444.046,674.807c-6.521,0-11.827,5.306-11.827,11.827s104.265,6.521,104.265,0
			s-5.306-11.827-11.827-11.827H444.046z"/>
	</g>
	<g>
		<polygon fill="#F49AC1" points="610.128,568.199 600.462,561.532 610.128,561.532 		"/>
		
			<linearGradient id="SVGID_61_" gradientUnits="userSpaceOnUse" x1="88.5479" y1="454.917" x2="88.5479" y2="561.5322" gradientTransform="matrix(-1 0 0 1 662.5967 0)">
			<stop  offset="0" style="stop-color:#EC008C"/>
			<stop  offset="1" style="stop-color:#F49AC1"/>
		</linearGradient>
		<path fill="url(#SVGID_61_)" d="M623.447,468.244c0-7.359-5.968-13.327-13.327-13.327h-72.142
			c-7.359,0-13.327,5.968-13.327,13.327v79.962c0,7.359,5.968,13.327,13.327,13.327h72.142c7.359,0,13.327-5.968,13.327-13.327
			V468.244z"/>
		<linearGradient id="SVGID_62_" gradientUnits="userSpaceOnUse" x1="574.0488" y1="456.417" x2="574.0488" y2="473.1352">
			<stop  offset="0" style="stop-color:#FFFFFF"/>
			<stop  offset="1" style="stop-color:#FFFFFF;stop-opacity:0"/>
		</linearGradient>
		<path opacity="0.8" fill="url(#SVGID_62_)" d="M537.978,456.417c-6.522,0-11.827,5.306-11.827,11.827
			c0,6.521,95.796,6.521,95.796,0c0-6.521-5.306-11.827-11.827-11.827H537.978z"/>
	</g>
	<g>
		<polygon fill="#D1D3D4" points="137.534,197.141 127.867,190.474 137.534,190.474 		"/>
		
			<linearGradient id="SVGID_63_" gradientUnits="userSpaceOnUse" x1="561.1426" y1="190.4741" x2="561.1426" y2="83.8589" gradientTransform="matrix(-1 0 0 1 662.5967 0)">
			<stop  offset="0" style="stop-color:#D1D3D4"/>
			<stop  offset="1" style="stop-color:#808285"/>
		</linearGradient>
		<path fill="url(#SVGID_63_)" d="M150.852,97.186c0-7.359-5.968-13.327-13.327-13.327H65.383c-7.359,0-13.327,5.968-13.327,13.327
			v79.962c0,7.359,5.968,13.327,13.327,13.327h72.142c7.359,0,13.327-5.968,13.327-13.327V97.186z"/>
		<linearGradient id="SVGID_64_" gradientUnits="userSpaceOnUse" x1="101.4541" y1="85.3589" x2="101.4541" y2="102.0771">
			<stop  offset="0" style="stop-color:#FFFFFF"/>
			<stop  offset="1" style="stop-color:#FFFFFF;stop-opacity:0"/>
		</linearGradient>
		<path opacity="0.8" fill="url(#SVGID_64_)" d="M65.383,85.359c-6.521,0-11.827,5.306-11.827,11.827c0,6.522,95.796,6.522,95.796,0
			c0-6.521-5.306-11.827-11.827-11.827H65.383z"/>
	</g>
	<g>
		<polygon fill="#FFDD00" points="560.731,412.314 551.064,405.647 560.731,405.647 		"/>
		
			<linearGradient id="SVGID_65_" gradientUnits="userSpaceOnUse" x1="137.9458" y1="405.647" x2="137.9458" y2="299.0317" gradientTransform="matrix(-1 0 0 1 662.5967 0)">
			<stop  offset="0" style="stop-color:#FFDD00"/>
			<stop  offset="1" style="stop-color:#F7941E"/>
		</linearGradient>
		<path fill="url(#SVGID_65_)" d="M574.049,312.359c0-7.359-5.968-13.327-13.327-13.327H488.58c-7.359,0-13.327,5.968-13.327,13.327
			v79.961c0,7.359,5.968,13.327,13.327,13.327h72.142c7.359,0,13.327-5.968,13.327-13.327V312.359z"/>
		<linearGradient id="SVGID_66_" gradientUnits="userSpaceOnUse" x1="524.6509" y1="300.5317" x2="524.6509" y2="317.25">
			<stop  offset="0" style="stop-color:#FFFFFF"/>
			<stop  offset="1" style="stop-color:#FFFFFF;stop-opacity:0"/>
		</linearGradient>
		<path opacity="0.8" fill="url(#SVGID_66_)" d="M488.58,300.532c-6.522,0-11.827,5.306-11.827,11.827
			c0,6.522,95.796,6.522,95.796,0c0-6.521-5.306-11.827-11.827-11.827H488.58z"/>
	</g>
	<g>
		<g>
			<g>
				
					<linearGradient id="SVGID_67_" gradientUnits="userSpaceOnUse" x1="112.6184" y1="603.2632" x2="112.6184" y2="576.6094" gradientTransform="matrix(-1 0 0 1 662.5967 0)">
					<stop  offset="0" style="stop-color:#A6CE39"/>
					<stop  offset="1" style="stop-color:#72BF44"/>
				</linearGradient>
				<path fill="url(#SVGID_67_)" d="M609.92,603.263c7.359,0,13.327-5.968,13.327-13.327c0-7.359-5.968-13.327-13.327-13.327
					H490.037c-7.359,0-13.327,5.968-13.327,13.327c0,7.359,5.968,13.327,13.327,13.327H609.92z"/>
			</g>
		</g>
		<polygon fill="#A6CE39" points="609.929,609.93 600.262,603.263 609.929,603.263 		"/>
		<g opacity="0.9">
			<g>
				<linearGradient id="SVGID_68_" gradientUnits="userSpaceOnUse" x1="549.9783" y1="578.1094" x2="549.9783" y2="594.8276">
					<stop  offset="0" style="stop-color:#FFFFFF"/>
					<stop  offset="1" style="stop-color:#FFFFFF;stop-opacity:0"/>
				</linearGradient>
				<path fill="url(#SVGID_68_)" d="M490.037,578.109c-6.521,0-11.827,5.306-11.827,11.827c0,6.521,143.538,6.521,143.538,0
					c0-6.522-5.306-11.827-11.827-11.827H490.037z"/>
			</g>
		</g>
	</g>
	<g>
		<g>
			<g>
				
					<linearGradient id="SVGID_69_" gradientUnits="userSpaceOnUse" x1="1118.9255" y1="357.5093" x2="1118.9255" y2="330.8555" gradientTransform="matrix(1 0 0 1 -998.0205 0)">
					<stop  offset="0" style="stop-color:#8ED8F8"/>
					<stop  offset="1" style="stop-color:#00C0F3"/>
				</linearGradient>
				<path fill="url(#SVGID_69_)" d="M60.963,357.509c-7.359,0-13.327-5.968-13.327-13.327c0-7.359,5.968-13.327,13.327-13.327
					h119.883c7.359,0,13.327,5.968,13.327,13.327c0,7.359-5.968,13.327-13.327,13.327H60.963z"/>
			</g>
		</g>
		<polygon fill="#8ED8F8" points="60.955,364.176 70.621,357.509 60.955,357.509 		"/>
		<g opacity="0.9">
			<g>
				
					<linearGradient id="SVGID_70_" gradientUnits="userSpaceOnUse" x1="-456.3288" y1="332.3555" x2="-456.3288" y2="349.0737" gradientTransform="matrix(-1 0 0 1 -335.4238 0)">
					<stop  offset="0" style="stop-color:#FFFFFF"/>
					<stop  offset="1" style="stop-color:#FFFFFF;stop-opacity:0"/>
				</linearGradient>
				<path fill="url(#SVGID_70_)" d="M60.963,332.355c-6.522,0-11.827,5.306-11.827,11.827c0,6.522,143.538,6.522,143.538,0
					c0-6.521-5.306-11.827-11.827-11.827H60.963z"/>
			</g>
		</g>
	</g>
	<g>
		<g>
			<g>
				
					<linearGradient id="SVGID_71_" gradientUnits="userSpaceOnUse" x1="-211.7536" y1="51.4917" x2="-211.7536" y2="24.8379" gradientTransform="matrix(-1 0 0 1 662.5967 0)">
					<stop  offset="0" style="stop-color:#FFDD00"/>
					<stop  offset="1" style="stop-color:#F7941E"/>
				</linearGradient>
				<path fill="url(#SVGID_71_)" d="M934.292,51.492c7.359,0,13.327-5.968,13.327-13.327c0-7.359-5.968-13.327-13.327-13.327
					H814.409c-7.359,0-13.327,5.968-13.327,13.327c0,7.359,5.968,13.327,13.327,13.327H934.292z"/>
			</g>
		</g>
		<polygon fill="#FFDD00" points="934.301,58.158 924.634,51.492 934.301,51.492 		"/>
		<g opacity="0.9">
			<g>
				<linearGradient id="SVGID_72_" gradientUnits="userSpaceOnUse" x1="874.3503" y1="26.3379" x2="874.3503" y2="43.0561">
					<stop  offset="0" style="stop-color:#FFFFFF"/>
					<stop  offset="1" style="stop-color:#FFFFFF;stop-opacity:0"/>
				</linearGradient>
				<path fill="url(#SVGID_72_)" d="M814.409,26.338c-6.521,0-11.827,5.306-11.827,11.827c0,6.522,143.538,6.522,143.538,0
					c0-6.521-5.306-11.827-11.827-11.827H814.409z"/>
			</g>
		</g>
	</g>
	<g>
		<g>
			<g>
				
					<linearGradient id="SVGID_73_" gradientUnits="userSpaceOnUse" x1="231.8777" y1="115.0137" x2="231.8777" y2="88.3599" gradientTransform="matrix(-1 0 0 1 662.5967 0)">
					<stop  offset="0" style="stop-color:#D1D3D4"/>
					<stop  offset="1" style="stop-color:#808285"/>
				</linearGradient>
				<path fill="url(#SVGID_73_)" d="M490.661,115.014c7.359,0,13.327-5.968,13.327-13.327c0-7.359-5.968-13.327-13.327-13.327
					H370.777c-7.359,0-13.327,5.968-13.327,13.327c0,7.359,5.968,13.327,13.327,13.327H490.661z"/>
			</g>
		</g>
		<polygon fill="#D1D3D4" points="490.669,121.68 481.003,115.014 490.669,115.014 		"/>
		<g opacity="0.9">
			<g>
				<linearGradient id="SVGID_74_" gradientUnits="userSpaceOnUse" x1="430.719" y1="89.8599" x2="430.719" y2="106.5781">
					<stop  offset="0" style="stop-color:#FFFFFF"/>
					<stop  offset="1" style="stop-color:#FFFFFF;stop-opacity:0"/>
				</linearGradient>
				<path fill="url(#SVGID_74_)" d="M370.777,89.86c-6.521,0-11.827,5.306-11.827,11.827c0,6.522,143.538,6.522,143.538,0
					c0-6.521-5.306-11.827-11.827-11.827H370.777z"/>
			</g>
		</g>
	</g>
	<g>
		<g>
			<g>
				
					<linearGradient id="SVGID_75_" gradientUnits="userSpaceOnUse" x1="1154.5916" y1="720.8462" x2="1154.5916" y2="747.5" gradientTransform="matrix(1 0 0 1 -998.0205 0)">
					<stop  offset="0" style="stop-color:#92278F"/>
					<stop  offset="1" style="stop-color:#BD8CBF"/>
				</linearGradient>
				<path fill="url(#SVGID_75_)" d="M96.629,747.5c-7.359,0-13.327-5.968-13.327-13.327c0-7.359,5.968-13.327,13.327-13.327h119.883
					c7.359,0,13.327,5.968,13.327,13.327c0,7.359-5.968,13.327-13.327,13.327H96.629z"/>
			</g>
		</g>
		<polygon fill="#BD8CBF" points="96.621,754.167 106.287,747.5 96.621,747.5 		"/>
		<g opacity="0.9">
			<g>
				
					<linearGradient id="SVGID_76_" gradientUnits="userSpaceOnUse" x1="-491.9948" y1="722.3462" x2="-491.9948" y2="739.0645" gradientTransform="matrix(-1 0 0 1 -335.4238 0)">
					<stop  offset="0" style="stop-color:#FFFFFF"/>
					<stop  offset="1" style="stop-color:#FFFFFF;stop-opacity:0"/>
				</linearGradient>
				<path fill="url(#SVGID_76_)" d="M96.629,722.346c-6.521,0-11.827,5.306-11.827,11.827c0,6.522,143.538,6.522,143.538,0
					c0-6.521-5.306-11.827-11.827-11.827H96.629z"/>
			</g>
		</g>
	</g>
	<g>
		<g>
			<g>
				
					<linearGradient id="SVGID_77_" gradientUnits="userSpaceOnUse" x1="1817.2522" y1="704.8521" x2="1817.2522" y2="731.5059" gradientTransform="matrix(1 0 0 1 -998.0205 0)">
					<stop  offset="0" style="stop-color:#EC008C"/>
					<stop  offset="1" style="stop-color:#F49AC1"/>
				</linearGradient>
				<path fill="url(#SVGID_77_)" d="M759.29,731.506c-7.359,0-13.327-5.968-13.327-13.327c0-7.359,5.968-13.327,13.327-13.327
					h119.883c7.359,0,13.327,5.968,13.327,13.327c0,7.359-5.968,13.327-13.327,13.327H759.29z"/>
			</g>
		</g>
		<polygon fill="#F49AC1" points="759.281,738.172 768.948,731.506 759.281,731.506 		"/>
		<g opacity="0.9">
			<g>
				
					<linearGradient id="SVGID_78_" gradientUnits="userSpaceOnUse" x1="-1154.6555" y1="706.3521" x2="-1154.6555" y2="723.0703" gradientTransform="matrix(-1 0 0 1 -335.4238 0)">
					<stop  offset="0" style="stop-color:#FFFFFF"/>
					<stop  offset="1" style="stop-color:#FFFFFF;stop-opacity:0"/>
				</linearGradient>
				<path fill="url(#SVGID_78_)" d="M759.29,706.352c-6.521,0-11.827,5.306-11.827,11.827s143.538,6.521,143.538,0
					s-5.306-11.827-11.827-11.827H759.29z"/>
			</g>
		</g>
	</g>
	<g>
		<g>
			<g>
				<rect x="203.543" y="230.613" fill="#9D9FA2" width="3.331" height="24.976"/>
				<rect x="401.725" y="161.672" fill="#9D9FA2" width="33.3" height="3.331"/>
				<rect x="203.543" y="268.006" fill="#9D9FA2" width="3.331" height="24.977"/>
				<path fill="#BCBEC0" d="M443.31,612.178H226.854c-11.016,0-19.98-8.963-19.98-19.981V184.983
					c0-11.017,8.964-19.979,19.98-19.979H443.31c11.018,0,19.982,8.962,19.982,19.979v407.214
					C463.292,603.215,454.328,612.178,443.31,612.178z"/>
				<path d="M459.963,592.197c0,9.197-7.455,16.652-16.652,16.652H226.854c-9.194,0-16.649-7.455-16.649-16.652V184.983
					c0-9.197,7.455-16.649,16.649-16.649H443.31c9.197,0,16.652,7.453,16.652,16.649V592.197z"/>
				<rect x="222.692" y="215.002" fill="#00AEEF" width="224.781" height="335.371"/>
				<path fill="#474B4F" d="M349.779,564.001c-5.384-5.383-24.013-5.383-29.394,0c-5.379,5.379-5.379,24.013,0,29.391
					c5.381,5.381,24.01,5.384,29.394,0C355.16,588.011,355.16,569.384,349.779,564.001z"/>
				<path fill="#474B4F" d="M310.28,198.168c-3.161,0-5.724-2.562-5.724-5.723c0-3.162,2.563-5.724,5.724-5.724h49.605
					c3.162,0,5.725,2.563,5.725,5.724c0,3.161-2.563,5.723-5.725,5.723H310.28z"/>
				<path fill="#474B4F" d="M392.987,192.445c0,4.139-3.355,7.493-7.495,7.493c-4.137,0-7.49-3.354-7.49-7.493
					c0-4.137,3.353-7.491,7.49-7.491C389.632,184.954,392.987,188.308,392.987,192.445z"/>
				<circle cx="385.494" cy="192.445" r="3.331"/>
				<path d="M335.084,588.898L335.084,588.898c-3.535,0-6.495-0.853-7.921-2.281c-3.035-3.033-3.035-12.807,0-15.84
					c1.426-1.429,4.386-2.28,7.921-2.28c3.531,0,6.493,0.852,7.92,2.28c1.428,1.426,2.279,4.385,2.279,7.921
					c0,3.534-0.852,6.494-2.279,7.919C341.577,588.045,338.615,588.898,335.084,588.898z M335.084,570.577
					c-2.86,0-5.452,0.672-6.45,1.671c-2.23,2.228-2.23,10.67,0,12.898c0.998,0.998,3.59,1.668,6.45,1.668l0,0
					c2.859,0,5.451-0.668,6.449-1.668c0.997-0.998,1.667-3.592,1.667-6.448c0-2.861-0.67-5.453-1.667-6.45
					C340.535,571.25,337.943,570.577,335.084,570.577z"/>
			</g>
		</g>
		<g>
			<path fill="#FEDBB4" d="M335.048,442.164c-16.889,0-32.903,1.663-47.275,4.637c6.235,19.059,25.041,32.908,47.275,32.908
				c22.234,0,41.039-13.849,47.274-32.908C367.95,443.827,351.936,442.164,335.048,442.164z"/>
			<polygon fill="#FEDBB4" points="370.943,460.936 300.946,460.936 305.727,410.182 366.163,410.182 			"/>
			<path fill="#F26522" d="M408.533,348.799c14.242-104.311-32.844-119.743-73.358-119.743c-40.515,0-87.6,15.431-73.358,119.743
				C268.432,397.248,401.919,397.248,408.533,348.799z"/>
			<g>
				<path fill="#E6C7A5" d="M413.604,346.219c0,13.131-5.904,20.596-15.568,20.596c-7.843,0-12.837-11.106-12.837-20.596
					c0-9.489,6.359-11.719,14.203-11.719C407.246,334.5,413.604,336.729,413.604,346.219z"/>
				<path fill="#F1D0AB" d="M256.746,346.219c0,13.131,5.904,20.596,15.568,20.596c7.843,0,12.836-11.106,12.836-20.596
					c0-9.489-6.358-11.719-14.202-11.719C263.103,334.5,256.746,336.729,256.746,346.219z"/>
			</g>
			<path fill="#FEDBB4" d="M335.175,423.704c31.556,0,60.984-24.173,67.028-68.441c13.013-95.31-30.01-109.409-67.028-109.409
				s-80.04,14.099-67.027,109.409C274.191,399.531,303.619,423.704,335.175,423.704z"/>
			<path fill="#FECE9A" d="M335.175,245.854c-0.042,0-0.085,0.001-0.127,0.001v177.847c0.042,0,0.085,0.002,0.127,0.002
				c31.556,0,60.984-24.173,67.028-68.441C415.216,259.953,372.193,245.854,335.175,245.854z"/>
			<path fill="#F26522" d="M400.867,362.983c-20.425,8.581-27.877,46.788-65.543,46.752c-37.94-0.038-45.149-38.819-65.901-47.063
				c0,40.32,22.477,74.688,65.752,74.688C378.508,437.36,400.867,400.634,400.867,362.983z"/>
			<path fill="#F26522" d="M335.175,383.586c-17.616-7.715-27.539,12.403-35.231,14.36c9.645,16.29,21.382-8.359,35.231-4.501
				c13.85-3.858,25.587,20.79,35.232,4.501C362.714,395.989,352.791,375.871,335.175,383.586z"/>
			<path d="M373.724,322.035c-18.932,0-28.482,5.104-38.676,5.104c-10.193,0-19.746-5.104-38.676-5.104
				c-15.896,0-30.484,5.635-30.484,5.635v7.99c0.913,0.052,2.546,0.376,2.776,3.108c1.861,22.417,7.072,34.229,25.849,34.229
				c19.874,0,27.561-9.405,31.186-20.59l0.001,0.001c2.843-7.988,6.047-13.642,9.349-13.642c3.301,0,6.506,5.654,9.349,13.642
				v-0.001c3.626,11.186,11.313,20.59,31.186,20.59c18.773,0,23.986-11.812,25.847-34.229c0.232-2.732,1.865-3.056,2.777-3.108
				v-7.99C404.207,327.67,389.618,322.035,373.724,322.035z M295.9,369.878c-17.324,0-22.641-12.052-23.413-28.297
				c-0.532-11.235,11.21-15.73,25.035-15.73c13.828,0,26.577,2.839,26.577,14.519C324.1,353.504,316.387,369.878,295.9,369.878z
				 M397.607,341.582c-0.77,16.245-6.088,28.297-23.412,28.297c-20.486,0-28.2-16.374-28.2-29.508
				c0-11.68,12.751-14.519,26.577-14.519C386.398,325.852,398.141,330.346,397.607,341.582z"/>
			<path fill="#F26522" d="M265.465,344.002c18.32-57.721,82.867-55.148,107.087-83.869c-0.429,61.727,24.647,54.439,32.024,78.873
				c8.055-26.577,2.743-97.091-69.401-97.091S257.63,307.999,265.465,344.002z"/>
			<circle cx="297.146" cy="344.509" r="6.146"/>
			<circle cx="373.059" cy="344.509" r="6.145"/>
			<polygon fill="#FECE9A" points="322.628,373.959 335.048,346.289 347.468,373.959 335.048,378.056 			"/>
			<polygon fill="#FDC282" points="335.048,346.29 335.048,378.056 347.468,373.959 335.048,346.289 			"/>
			<path fill="#82CA9C" d="M382.32,446.806c-6.237,19.057-25.041,32.902-47.272,32.902c-22.232,0-41.036-13.845-47.273-32.901
				c-8.083,1.673-15.653,3.754-22.556,6.197c9.079,28.285,36.905,48.876,69.828,48.876c32.923,0,60.749-20.591,69.827-48.876
				C397.973,450.56,390.402,448.479,382.32,446.806z"/>
			<g>
				<path fill="#76B88F" d="M404.875,453.004c-9.079,28.285-36.904,48.875-69.827,48.875c-32.923,0-60.748-20.591-69.828-48.875
					c-14.961,5.295-26.826,12.252-34.186,20.246c16.794,38.643,57.034,65.862,104.015,65.862c46.98,0,87.221-27.219,104.015-65.862
					C431.702,465.256,419.837,458.298,404.875,453.004z"/>
			</g>
			<g>
				<path d="M231.121,473.155c0.123-0.135,0.249-0.272,0.375-0.41C231.367,472.881,231.247,473.018,231.121,473.155z"/>
				<path fill="#82CA9C" d="M222.656,492.248c0-6.725,2.982-13.139,8.377-18.998c16.794,38.643,57.034,65.862,104.015,65.862
					c46.98,0,87.221-27.219,104.015-65.862c-0.152-0.165-0.31-0.337-0.467-0.508c5.694,5.995,8.843,12.586,8.843,19.506v58.125
					H222.656V492.248z"/>
			</g>
		</g>
	</g>
	<g>
		<g>
			<g>
				<rect x="633.95" y="230.613" fill="#9D9FA2" width="3.332" height="24.976"/>
				<rect x="832.132" y="161.672" fill="#9D9FA2" width="33.3" height="3.331"/>
				<rect x="633.95" y="268.006" fill="#9D9FA2" width="3.332" height="24.977"/>
				<path fill="#BCBEC0" d="M873.718,612.178H657.261c-11.016,0-19.978-8.963-19.978-19.981V184.983
					c0-11.017,8.963-19.979,19.978-19.979h216.457c11.018,0,19.981,8.962,19.981,19.979v407.214
					C893.699,603.215,884.735,612.178,873.718,612.178z"/>
				<path d="M890.37,592.197c0,9.197-7.455,16.652-16.652,16.652H657.261c-9.195,0-16.649-7.455-16.649-16.652V184.983
					c0-9.197,7.454-16.649,16.649-16.649h216.457c9.197,0,16.652,7.453,16.652,16.649V592.197z"/>
				<rect x="653.1" y="215.002" fill="#8DC63F" width="224.782" height="335.371"/>
				<path fill="#474B4F" d="M780.187,564.001c-5.384-5.383-24.013-5.383-29.393,0c-5.379,5.379-5.379,24.013,0,29.391
					c5.381,5.381,24.01,5.384,29.393,0C785.567,588.011,785.567,569.384,780.187,564.001z"/>
				<path fill="#474B4F" d="M740.688,198.168c-3.161,0-5.724-2.562-5.724-5.724c0-3.161,2.563-5.724,5.724-5.724h49.606
					c3.162,0,5.725,2.563,5.725,5.724c0,3.162-2.563,5.724-5.725,5.724H740.688z"/>
				<path fill="#474B4F" d="M823.396,192.444c0,4.139-3.356,7.494-7.496,7.494c-4.136,0-7.49-3.354-7.49-7.494
					c0-4.136,3.354-7.49,7.49-7.49C820.039,184.954,823.396,188.308,823.396,192.444z"/>
				<circle cx="815.901" cy="192.444" r="3.331"/>
				<path d="M765.492,588.898L765.492,588.898c-3.536,0-6.496-0.853-7.922-2.281c-3.036-3.033-3.036-12.807,0-15.84
					c1.426-1.429,4.386-2.281,7.922-2.281c3.53,0,6.492,0.852,7.918,2.281c1.429,1.425,2.281,4.385,2.281,7.921
					c0,3.534-0.853,6.494-2.281,7.919C771.984,588.045,769.023,588.898,765.492,588.898z M765.492,570.578
					c-2.861,0-5.453,0.672-6.451,1.67c-2.231,2.228-2.231,10.67,0,12.898c0.998,0.998,3.59,1.668,6.451,1.668l0,0
					c2.858,0,5.45-0.668,6.447-1.668c0.998-0.998,1.669-3.592,1.669-6.448c0-2.861-0.671-5.453-1.669-6.45
					C770.942,571.25,768.351,570.578,765.492,570.578z"/>
			</g>
		</g>
		<g>
			<g>
				<path d="M764.854,242.66c-39.747,0-93.021,16.479-71.969,117.474h143.938C857.874,259.139,804.601,242.66,764.854,242.66"/>
				<g>
					<path fill="#EC008C" d="M653.063,501.032v49.116h224.782v-49.116c0-19.221-58.51-52.184-111.494-52.184
						C713.368,448.848,653.063,481.81,653.063,501.032z"/>
				</g>
				<path fill="#FEDBB4" d="M735.777,468.203l3.042-43.888h51.898l3.118,43.888c0,0-12.542,5.857-28.981,5.857
					C748.414,474.06,735.777,468.203,735.777,468.203z"/>
				<g>
					<path fill="#E6C7A5" d="M841.798,357.603c0,12.883-5.793,20.207-15.273,20.207c-7.694,0-12.593-10.896-12.593-20.207
						c0-9.309,6.237-11.497,13.933-11.497C835.56,346.105,841.798,348.293,841.798,357.603z"/>
					<path fill="#F1D0AB" d="M687.911,357.603c0,12.883,5.793,20.207,15.273,20.207c7.694,0,12.593-10.896,12.593-20.207
						c0-9.309-6.238-11.497-13.933-11.497C694.148,346.105,687.911,348.293,687.911,357.603z"/>
				</g>
				<path fill="#FEDBB4" d="M764.854,440.319c30.865,0,59.921-31.093,65.758-73.844c12.766-93.503-29.44-107.336-65.758-107.336
					s-78.524,13.833-65.758,107.336C704.934,409.226,733.99,440.319,764.854,440.319z"/>
				<path fill="#FECE9A" d="M763.816,440.308c0.347,0.005,0.691,0.011,1.038,0.011c30.865,0,59.921-31.093,65.758-73.844
					c12.766-93.503-29.44-107.336-65.758-107.336c-0.345,0-0.69,0.001-1.038,0.004V440.308z"/>
				<circle cx="726.868" cy="355.604" r="5.982"/>
				<circle cx="800.766" cy="355.604" r="5.982"/>
				<polygon fill="#FECE9A" points="751.674,384.271 763.765,357.335 775.854,384.271 763.764,388.259 				"/>
				<polygon fill="#FDC282" points="763.764,357.336 763.764,388.259 775.854,384.271 763.765,357.335 				"/>
				<g>
					<path fill="#F173AC" d="M775.715,403.633c-2.779-0.849-5.172-1.903-8.01-1.903c-2.838,0-3.889,1.651-3.889,1.651
						s-1.05-1.651-3.888-1.651s-5.231,1.054-8.01,1.903c-2.78,0.849-4.316,0.628-4.316,0.628c0.627,4.296,5.417,9.971,16.214,9.971
						c10.798,0,15.589-5.675,16.215-9.971C780.031,404.261,778.495,404.482,775.715,403.633z"/>
					<path fill="#F287B7" d="M775.715,403.633c-2.779-0.849-5.172-1.903-8.01-1.903c-2.838,0-3.889,1.651-3.889,1.651
						s-1.05-1.651-3.888-1.651s-5.231,1.054-8.01,1.903c-2.78,0.849-4.316,0.628-4.316,0.628s2.402,3.591,8.911,3.591
						c1.132,0,3.388-0.605,4.523-0.605c1.136,0,1.683,0.661,2.779,0.661c1.099,0,1.646-0.661,2.78-0.661
						c1.136,0,3.392,0.605,4.523,0.605c6.509,0,8.911-3.591,8.911-3.591S778.495,404.482,775.715,403.633z"/>
				</g>
				<path fill="#785C37" d="M764.854,242.66"/>
				<path fill="#EC008C" d="M801.785,331.366c-18.61,0-28,5.017-38.021,5.017c-10.021,0-19.411-5.017-38.021-5.017
					c-15.626,0-29.967,5.54-29.967,5.54v7.855c0.897,0.051,2.502,0.371,2.729,3.055c1.83,22.038,6.953,33.649,25.411,33.649
					c19.538,0,27.093-9.246,30.657-20.241l0.001,0c2.794-7.852,5.944-13.411,9.19-13.411c3.244,0,6.395,5.559,9.19,13.411v0
					c3.565,10.996,11.12,20.241,30.658,20.241c18.454,0,23.58-11.611,25.409-33.649c0.227-2.685,1.833-3.004,2.729-3.055v-7.855
					C831.752,336.906,817.41,331.366,801.785,331.366z M725.281,378.399c-17.031,0-22.259-11.847-23.017-27.817
					c-0.523-11.045,11.019-15.464,24.61-15.464c13.593,0,26.126,2.791,26.126,14.273
					C753.001,362.302,745.42,378.399,725.281,378.399z M825.264,350.582c-0.757,15.97-5.984,27.817-23.016,27.817
					c-20.139,0-27.722-16.097-27.722-29.007c0-11.482,12.535-14.273,26.127-14.273S825.788,339.537,825.264,350.582z"/>
				<path d="M764.854,255.276c-70.778,0-76.076,64.831-68.39,100.152c5.339-16.821,102.521-52.242,105.058-55.25
					c-0.076,10.999,2.754,21.479,10.524,29.25c6.583,6.582,16.887,7.826,20.895,21.099
					C840.843,324.454,835.633,255.276,764.854,255.276z"/>
				<path fill="#EC008C" d="M832.759,319.536c2.94-42.205-20.38-72.504-67.996-72.504s-70.937,30.887-67.996,72.504
					c0-29.707,20.38-61.242,67.996-61.242S832.759,289.829,832.759,319.536z"/>
			</g>
			<path fill="#FEDBB4" d="M817,457.508c-16.038-5.255-33.627-8.661-50.648-8.661c-18.522,0-37.936,4.031-55.358,10.093
				c5.893,16.661,27.281,29.007,52.77,29.007C789.977,487.948,811.856,474.889,817,457.508z"/>
		</g>
	</g>
	<g>
		<polygon fill="#BD8CBF" points="27.129,616.604 36.796,609.938 27.129,609.938 		"/>
		
			<linearGradient id="SVGID_79_" gradientUnits="userSpaceOnUse" x1="-94.3191" y1="503.3228" x2="-94.3191" y2="609.938" gradientTransform="matrix(1 0 0 1 200.2627 0)">
			<stop  offset="0" style="stop-color:#92278F"/>
			<stop  offset="1" style="stop-color:#BD8CBF"/>
		</linearGradient>
		<path fill="url(#SVGID_79_)" d="M13.811,516.65c0-7.359,5.968-13.327,13.327-13.327h157.611c7.359,0,13.327,5.968,13.327,13.327
			v79.961c0,7.359-5.968,13.327-13.327,13.327H27.138c-7.359,0-13.327-5.968-13.327-13.327V516.65z"/>
		
			<linearGradient id="SVGID_80_" gradientUnits="userSpaceOnUse" x1="756.9158" y1="504.8228" x2="756.9158" y2="521.541" gradientTransform="matrix(-1 0 0 1 862.8594 0)">
			<stop  offset="0" style="stop-color:#FFFFFF"/>
			<stop  offset="1" style="stop-color:#FFFFFF;stop-opacity:0"/>
		</linearGradient>
		<path opacity="0.8" fill="url(#SVGID_80_)" d="M27.138,504.823c-6.522,0-11.827,5.306-11.827,11.827
			c0,6.521,181.265,6.521,181.265,0c0-6.522-5.306-11.827-11.827-11.827H27.138z"/>
	</g>
	<g>
		<polygon fill="#D1D3D4" points="719.425,733.281 709.759,726.614 719.425,726.614 		"/>
		
			<linearGradient id="SVGID_81_" gradientUnits="userSpaceOnUse" x1="21.9856" y1="726.6143" x2="21.9856" y2="619.999" gradientTransform="matrix(-1 0 0 1 662.5967 0)">
			<stop  offset="0" style="stop-color:#D1D3D4"/>
			<stop  offset="1" style="stop-color:#808285"/>
		</linearGradient>
		<path fill="url(#SVGID_81_)" d="M732.744,633.326c0-7.359-5.968-13.327-13.327-13.327H561.806
			c-7.359,0-13.327,5.968-13.327,13.327v79.961c0,7.359,5.968,13.327,13.327,13.327h157.611c7.359,0,13.327-5.968,13.327-13.327
			V633.326z"/>
		<linearGradient id="SVGID_82_" gradientUnits="userSpaceOnUse" x1="640.6111" y1="621.499" x2="640.6111" y2="638.2173">
			<stop  offset="0" style="stop-color:#FFFFFF"/>
			<stop  offset="1" style="stop-color:#FFFFFF;stop-opacity:0"/>
		</linearGradient>
		<path opacity="0.8" fill="url(#SVGID_82_)" d="M561.806,621.499c-6.522,0-11.827,5.306-11.827,11.827
			c0,6.522,181.265,6.522,181.265,0c0-6.521-5.306-11.827-11.827-11.827H561.806z"/>
	</g>
	<g>
		<polygon fill="#FFDD00" points="177.932,164.994 187.599,158.328 177.932,158.328 		"/>
		
			<linearGradient id="SVGID_83_" gradientUnits="userSpaceOnUse" x1="635.134" y1="158.3276" x2="635.134" y2="51.7124" gradientTransform="matrix(1 0 0 1 -378.3877 0)">
			<stop  offset="0" style="stop-color:#FFDD00"/>
			<stop  offset="1" style="stop-color:#F7941E"/>
		</linearGradient>
		<path fill="url(#SVGID_83_)" d="M164.614,65.04c0-7.359,5.968-13.327,13.327-13.327h157.611c7.359,0,13.327,5.968,13.327,13.327
			v79.961c0,7.359-5.968,13.327-13.327,13.327H177.941c-7.359,0-13.327-5.968-13.327-13.327V65.04z"/>
		
			<linearGradient id="SVGID_84_" gradientUnits="userSpaceOnUse" x1="27.4627" y1="53.2124" x2="27.4627" y2="69.9306" gradientTransform="matrix(-1 0 0 1 284.209 0)">
			<stop  offset="0" style="stop-color:#FFFFFF"/>
			<stop  offset="1" style="stop-color:#FFFFFF;stop-opacity:0"/>
		</linearGradient>
		<path opacity="0.8" fill="url(#SVGID_84_)" d="M177.941,53.212c-6.521,0-11.827,5.306-11.827,11.827
			c0,6.521,181.265,6.521,181.265,0c0-6.522-5.306-11.827-11.827-11.827H177.941z"/>
	</g>
	<g>
		<polygon fill="#8ED8F8" points="623.03,160.001 632.696,153.335 623.03,153.335 		"/>
		
			<linearGradient id="SVGID_85_" gradientUnits="userSpaceOnUse" x1="501.5813" y1="153.3345" x2="501.5813" y2="46.7192" gradientTransform="matrix(1 0 0 1 200.2627 0)">
			<stop  offset="0" style="stop-color:#8ED8F8"/>
			<stop  offset="1" style="stop-color:#00C0F3"/>
		</linearGradient>
		<path fill="url(#SVGID_85_)" d="M609.711,60.046c0-7.359,5.968-13.327,13.327-13.327h157.611c7.359,0,13.327,5.968,13.327,13.327
			v79.961c0,7.359-5.968,13.327-13.327,13.327H623.039c-7.359,0-13.327-5.968-13.327-13.327V60.046z"/>
		
			<linearGradient id="SVGID_86_" gradientUnits="userSpaceOnUse" x1="161.0154" y1="48.2192" x2="161.0154" y2="64.9375" gradientTransform="matrix(-1 0 0 1 862.8594 0)">
			<stop  offset="0" style="stop-color:#FFFFFF"/>
			<stop  offset="1" style="stop-color:#FFFFFF;stop-opacity:0"/>
		</linearGradient>
		<path opacity="0.8" fill="url(#SVGID_86_)" d="M623.039,48.219c-6.521,0-11.827,5.306-11.827,11.827s181.265,6.521,181.265,0
			s-5.306-11.827-11.827-11.827H623.039z"/>
	</g>
	<g>
		<polygon fill="#A6CE39" points="1073.214,577.281 1063.548,570.614 1073.214,570.614 		"/>
		
			<linearGradient id="SVGID_87_" gradientUnits="userSpaceOnUse" x1="-331.8034" y1="570.6143" x2="-331.8034" y2="463.999" gradientTransform="matrix(-1 0 0 1 662.5967 0)">
			<stop  offset="0" style="stop-color:#A6CE39"/>
			<stop  offset="0.3801" style="stop-color:#A4CE39"/>
			<stop  offset="0.6086" style="stop-color:#9CCB3C"/>
			<stop  offset="0.797" style="stop-color:#8DC73F"/>
			<stop  offset="0.9627" style="stop-color:#78C143"/>
			<stop  offset="1" style="stop-color:#72BF44"/>
		</linearGradient>
		<path fill="url(#SVGID_87_)" d="M1086.533,477.326c0-7.359-5.968-13.327-13.327-13.327H915.595
			c-7.359,0-13.327,5.968-13.327,13.327v79.961c0,7.359,5.968,13.327,13.327,13.327h157.611c7.359,0,13.327-5.968,13.327-13.327
			V477.326z"/>
		<linearGradient id="SVGID_88_" gradientUnits="userSpaceOnUse" x1="994.4001" y1="465.499" x2="994.4001" y2="482.2173">
			<stop  offset="0" style="stop-color:#FFFFFF"/>
			<stop  offset="1" style="stop-color:#FFFFFF;stop-opacity:0"/>
		</linearGradient>
		<path opacity="0.8" fill="url(#SVGID_88_)" d="M915.595,465.499c-6.521,0-11.827,5.306-11.827,11.827
			c0,6.521,181.265,6.521,181.265,0c0-6.522-5.306-11.827-11.827-11.827H915.595z"/>
	</g>
</g>
</svg>
